<?xml version='1.0' encoding='utf-8'?>
<svg xmlns="http://www.w3.org/2000/svg" version="2.0" width="850" height="400">
  <line x1="70" y1="50" x2="70" y2="350" stroke="black" stroke-width="2" />
  <line x1="65" y1="350.0" x2="70" y2="350.0" stroke="black" stroke-width="1" />
  <text x="60" y="354.0" font-size="10" text-anchor="end">0</text>
  <line x1="65" y1="290.0" x2="70" y2="290.0" stroke="black" stroke-width="1" />
  <text x="60" y="294.0" font-size="10" text-anchor="end">10</text>
  <line x1="65" y1="230.0" x2="70" y2="230.0" stroke="black" stroke-width="1" />
  <text x="60" y="234.0" font-size="10" text-anchor="end">20</text>
  <line x1="65" y1="170.0" x2="70" y2="170.0" stroke="black" stroke-width="1" />
  <text x="60" y="174.0" font-size="10" text-anchor="end">30</text>
  <line x1="65" y1="110.0" x2="70" y2="110.0" stroke="black" stroke-width="1" />
  <text x="60" y="114.0" font-size="10" text-anchor="end">40</text>
  <line x1="65" y1="50.0" x2="70" y2="50.0" stroke="black" stroke-width="1" />
  <text x="60" y="54.0" font-size="10" text-anchor="end">50</text>
  <line x1="70" y1="350" x2="820" y2="350" stroke="black" stroke-width="2" />
  <line x1="70.0" y1="350" x2="70.0" y2="355" stroke="black" stroke-width="1" />
  <text x="70.0" y="370" font-size="10" text-anchor="middle">0</text>
  <line x1="195.0" y1="350" x2="195.0" y2="355" stroke="black" stroke-width="1" />
  <text x="195.0" y="370" font-size="10" text-anchor="middle">1000</text>
  <line x1="320.0" y1="350" x2="320.0" y2="355" stroke="black" stroke-width="1" />
  <text x="320.0" y="370" font-size="10" text-anchor="middle">2000</text>
  <line x1="445.0" y1="350" x2="445.0" y2="355" stroke="black" stroke-width="1" />
  <text x="445.0" y="370" font-size="10" text-anchor="middle">3000</text>
  <line x1="570.0" y1="350" x2="570.0" y2="355" stroke="black" stroke-width="1" />
  <text x="570.0" y="370" font-size="10" text-anchor="middle">4000</text>
  <line x1="695.0" y1="350" x2="695.0" y2="355" stroke="black" stroke-width="1" />
  <text x="695.0" y="370" font-size="10" text-anchor="middle">5000</text>
  <line x1="820.0" y1="350" x2="820.0" y2="355" stroke="black" stroke-width="1" />
  <text x="820.0" y="370" font-size="10" text-anchor="middle">6000</text>
  <polyline points="70,134 145,122 152,128 161,122 166,140 172,152 180,170 188,194 201,212 218,212 248,152 263,134 266,128 268,122 297,110 314,134 328,128 339,116 350,116 386,116 387,116 388,116 399,122 401,122 403,122 458,145 462,145 466,140 473,116 478,104 484,98 502,80 506,86 510,86 542,128 546,134 551,140 562,152 579,152 587,140 592,134 596,128 701,134 707,122 714,128 753,134" stroke="red" stroke-width="3" fill="none" />
  <line x1="70.0" y1="134.0" x2="753.375" y2="134.0" stroke="red" stroke-width="1" />
  <text x="425.0" y="390" font-size="12" text-anchor="middle">Distancia (m)</text>
  <text x="25" y="200.0" font-size="12" text-anchor="middle" transform="rotate(-90,25,200.0)">Altitud (m)</text>
</svg>